<svg xmlns="http://www.w3.org/2000/svg" width="1024" height="1024" viewBox="24.837997436523438 -41 974.323974609375 1106" class="colorable-icon reset-top-left-margin" data-export-recolorable-svg="true" overflow="visible" xmlns:xlink="http://www.w3.org/1999/xlink" fill="rgb(0, 0, 0)" stroke="none"><g fill="none" stroke="url(&quot;#theme-accent-gradient-linear&quot;) rgb(45, 45, 47)" stroke-width="45" stroke-linecap="round" stroke-linejoin="round"><path d="M 876.018,738.782 C 806.382,752.799 771.011,760.982 735.087,771.403 C 706.509,781.956 674.264,797.139 639.93,816.974 Q 614.678,834.751 591.975,853.976" data-line="nan" stroke-width="45.0" fill="none" stroke="url(&quot;#theme-accent-gradient-linear&quot;) rgb(45, 45, 47)"/><path d="M 686.567,622.392 C 636.595,636.602 618.411,643.965 597.361,655.15 C 580.863,666.108 567.245,676.777 513.74,724.639" data-line="nan" stroke-width="45.0" fill="none" stroke="url(&quot;#theme-accent-gradient-linear&quot;) rgb(45, 45, 47)"/><path d="M 686.119,403.037 C 676.231,476.79 674.629,504.219 674.353,531.73 C 675.587,556.71 678.388,578.629 681.437,592.869 L 690.549,624.842" data-line="nan" stroke-width="45.0" fill="none" stroke="url(&quot;#theme-accent-gradient-linear&quot;) rgb(45, 45, 47)"/><path d="M 343.908,404.554 C 349.889,443.204 351.963,462.211 353.772,487.022 C 353.875,513.952 351.602,558.573 348.408,579.789 L 340.545,621.464" data-line="nan" stroke-width="45.0" fill="none" stroke="url(&quot;#theme-accent-gradient-linear&quot;) rgb(45, 45, 47)"/><path d="M 517.209,304.939 C 463.747,350.929 444.083,365.6 429.718,374.716 C 411.651,384.029 398.416,389.231 380.982,394.821 L 343.908,404.554" data-line="nan" stroke-width="45.0" fill="none" stroke="url(&quot;#theme-accent-gradient-linear&quot;) rgb(45, 45, 47)"/><path d="M 682.219,405.095 C 628.867,387.069 612.567,379.578 598.78,371.839 C 584.656,362.622 573.395,354.095 517.209,304.939" data-line="nan" stroke-width="45.0" fill="none" stroke="url(&quot;#theme-accent-gradient-linear&quot;) rgb(45, 45, 47)"/><path d="M 876.018,738.782 C 860.229,675.862 849.118,615.418 844.808,582.521 C 842.216,555.077 840.587,527.669 839.971,500.212 C 840.427,478.259 842.243,450.77 849.539,396.113 Q 858.393,352.154 875.85,286.621" data-line="nan" stroke-width="45.0" fill="none" stroke="url(&quot;#theme-accent-gradient-linear&quot;) rgb(45, 45, 47)"/><path d="M 154.773,286.82 C 169.894,345.463 175.615,372.862 180.667,402.153 C 184.439,430.314 187.043,457.705 188.891,509.741 C 188.406,537.347 186.622,567.748 184.174,595.038 C 180.314,625.889 172.05,670.168 154.997,736.247" data-line="nan" stroke-width="45.0" fill="none" stroke="url(&quot;#theme-accent-gradient-linear&quot;) rgb(45, 45, 47)"/><path d="M 875.85,286.621 C 837.101,278.638 785.751,269.804 755.828,263.176 C 735.949,257.257 716.703,250.38 680.973,234.397 C 662.02,224.088 645.277,213.858 624.891,199.924 C 606.852,186.29 576.756,160.506 514.402,102.182" data-line="nan" stroke-width="45.0" fill="none" stroke="url(&quot;#theme-accent-gradient-linear&quot;) rgb(45, 45, 47)"/><path d="M 514.402,102.182 C 459.225,155.615 431.747,179.325 409.89,196.11 C 387.638,211.727 371.063,222.306 354.444,231.649 C 337.834,239.765 315.652,249.09 293.407,256.977 C 265.977,265.182 221.963,275.387 154.773,286.82" data-line="nan" stroke-width="45.0" fill="none" stroke="url(&quot;#theme-accent-gradient-linear&quot;) rgb(45, 45, 47)"/><path d="M 953.682,786.346 L 156.691,289.105" data-line="0.0" stroke-width="45.0" fill="none" stroke="url(&quot;#theme-accent-gradient-linear&quot;) rgb(45, 45, 47)"/><path d="M 514.518,307.662 L 514.214,945.094" data-line="2.0" stroke-width="45.0" fill="none" stroke="url(&quot;#theme-accent-gradient-linear&quot;) rgb(45, 45, 47)"/><path d="M 512.2567785625406,725.7949162444052 A 280.6285193895179,280.6285193895179 0 0,0 340.4355566144563,622.0743896746469" data-line="4.0" stroke-width="45.0" fill="none" stroke="url(&quot;#theme-accent-gradient-linear&quot;) rgb(45, 45, 47)"/><path d="M 514.157,929.226 L 429.633,845.772" data-line="5.0" stroke-width="45.0" fill="none" stroke="url(&quot;#theme-accent-gradient-linear&quot;) rgb(45, 45, 47)"/><path d="M 340.545,621.464 L 155.412,738.617" data-line="6.0" stroke-width="45.0" fill="none" stroke="url(&quot;#theme-accent-gradient-linear&quot;) rgb(45, 45, 47)"/><path d="M 682.219,405.095 L 343.412,622.3" data-line="8.0" stroke-width="45.0" fill="none" stroke="url(&quot;#theme-accent-gradient-linear&quot;) rgb(45, 45, 47)"/><path d="M 954.162,238.282 L 686.119,403.037" data-line="14.0" stroke-width="45.0" fill="none" stroke="url(&quot;#theme-accent-gradient-linear&quot;) rgb(45, 45, 47)"/><path d="M 517.209,304.939 L 514.402,102.182" data-line="19.0" stroke-width="45.0" fill="none" stroke="url(&quot;#theme-accent-gradient-linear&quot;) rgb(45, 45, 47)"/><path d="M 515.49,4.0 L 516.333,103.611" data-line="21.0" stroke-width="45.0" fill="none" stroke="url(&quot;#theme-accent-gradient-linear&quot;) rgb(45, 45, 47)"/><path d="M 69.838,235.329 L 154.773,286.82" data-line="22.0" stroke-width="45.0" fill="none" stroke="url(&quot;#theme-accent-gradient-linear&quot;) rgb(45, 45, 47)"/><path d="M 74.139,787.729 L 149.553,739.715" data-line="23.0" stroke-width="45.0" fill="none" stroke="url(&quot;#theme-accent-gradient-linear&quot;) rgb(45, 45, 47)"/><path d="M 514.214,945.094 L 514.221,1020.0" data-line="24.0" stroke-width="45.0" fill="none" stroke="url(&quot;#theme-accent-gradient-linear&quot;) rgb(45, 45, 47)"/><path d="M 591.975,853.976 L 514.157,929.226" data-line="25.0" stroke-width="45.0" fill="none" stroke="url(&quot;#theme-accent-gradient-linear&quot;) rgb(45, 45, 47)"/><path d="M 429.79053695618916,845.5815614208459 A 411.74593960655864,411.74593960655864 0 0,0 252.84324770366152,760.0728635176897" data-line="26.0" stroke-width="45.0" fill="none" stroke="url(&quot;#theme-accent-gradient-linear&quot;) rgb(45, 45, 47)"/><path d="M 252.874,759.928 L 153.853,740.526" data-line="27.0" stroke-width="45.0" fill="none" stroke="url(&quot;#theme-accent-gradient-linear&quot;) rgb(45, 45, 47)"/></g></svg>