<svg xmlns="http://www.w3.org/2000/svg" width="1024" height="1024" viewBox="-24.844999313354492 -41 1073.072998046875 1105.6636352539062" class="colorable-icon reset-top-left-margin" data-export-recolorable-svg="true" overflow="visible" xmlns:xlink="http://www.w3.org/1999/xlink" fill="rgb(0, 0, 0)" stroke="none"><g fill="none" stroke="url(&quot;#theme-accent-gradient-linear&quot;) rgb(45, 45, 47)" stroke-width="45" stroke-linecap="round" stroke-linejoin="round"><path d="M 888.182,67.416 C 910.238,87.852 927.53,105.685 944.458,126.596 C 958.273,147.269 970.865,170.396 980.076,191.358 C 989.224,217.788 996.045,244.95 1000.872,273.367 C 1003.894,307.858 1003.858,321.79 1001.623,357.009 C 997.623,388.676 991.418,421.246 983.1,453.683 L 973.453,484.548" data-line="nan" stroke-width="45.0" fill="none" stroke="url(&quot;#theme-accent-gradient-linear&quot;) rgb(45, 45, 47)"/><path d="M 877.324,60.441 C 849.048,43.394 817.292,28.809 784.817,17.868 C 749.807,9.885 717.289,5.259 687.283,4.0 C 642.763,5.523 605.769,10.354 564.124,19.296 C 527.067,30.229 485.434,45.757 448.252,62.615 C 411.282,82.313 374.545,104.927 337.444,131.074 L 304.917,156.965" data-line="nan" stroke-width="45.0" fill="none" stroke="url(&quot;#theme-accent-gradient-linear&quot;) rgb(45, 45, 47)"/><path d="M 973.453,484.548 C 958.734,524.139 942.129,562.448 921.379,603.963 C 900.533,640.602 876.928,677.476 850.3,714.546 C 823.046,748.503 792.909,781.825 751.824,822.734 C 713.712,856.901 676.898,886.763 640.064,913.302 C 601.52,937.606 561.594,959.124 521.277,977.417 L 479.596,992.909" data-line="nan" stroke-width="45.0" fill="none" stroke="url(&quot;#theme-accent-gradient-linear&quot;) rgb(45, 45, 47)"/><path d="M 479.596,992.909 C 455.23,1000.412 431.452,1006.656 409.678,1011.498 C 386.053,1015.632 365.376,1018.156 344.344,1019.568 C 316.454,1019.975 300.378,1019.116 277.154,1016.363 C 256.502,1012.774 235.422,1007.616 218.064,1002.161 C 197.901,994.435 180.984,986.472 167.162,978.846 L 145.782,965.225" data-line="nan" stroke-width="45.0" fill="none" stroke="url(&quot;#theme-accent-gradient-linear&quot;) rgb(45, 45, 47)"/><path d="M 154.484,319.369 C 127.772,358.586 101.948,402.578 78.66,449.413 C 59.595,495.478 44.108,541.861 32.256,588.222 C 24.031,634.459 21.269,657.497 20.155,675.944 C 20.455,726.736 24.241,763.681 27.619,782.372 C 32.026,800.967 37.464,819.339 44.242,837.962 C 52.384,856.532 59.328,870.072 67.697,884.346 C 77.072,898.312 88.377,912.48 101.165,926.492 L 133.0,956.928" data-line="nan" stroke-width="45.0" fill="none" stroke="url(&quot;#theme-accent-gradient-linear&quot;) rgb(45, 45, 47)"/><path d="M 876.4187535399499,60.34210637557872 A 472.0892932318514,472.0892932318514 0 0,1 591.8028620338025,443.5402218152068" data-line="1.0" stroke-width="45.0" fill="none" stroke="url(&quot;#theme-accent-gradient-linear&quot;) rgb(45, 45, 47)"/><path d="M 591.983,443.964 C 484.2172459512967,489.7396016741265 361.5837257263105,551.7131670828498 266.372,676.668" data-line="5.0" stroke-width="45.0" fill="none" stroke="url(&quot;#theme-accent-gradient-linear&quot;) rgb(45, 45, 47)"/><path d="M 266.73540922048136,676.9630446861163 A 561.1037834803142,561.1037834803142 0 0,0 145.07877268330083,965.1423622758624" data-line="6.0" stroke-width="45.0" fill="none" stroke="url(&quot;#theme-accent-gradient-linear&quot;) rgb(45, 45, 47)"/><path d="M 304.917,156.965 L 154.484,319.369" data-line="7.0" stroke-width="45.0" fill="none" stroke="url(&quot;#theme-accent-gradient-linear&quot;) rgb(45, 45, 47)"/></g></svg>