<svg xmlns="http://www.w3.org/2000/svg" width="1024" height="1024" viewBox="-27.190847396850586 -41.271623849868774 1078.3093872070312 1106.2716064453125" class="colorable-icon reset-top-left-margin" data-export-recolorable-svg="true" overflow="visible" xmlns:xlink="http://www.w3.org/1999/xlink" fill="rgb(0, 0, 0)" stroke="none"><g fill="none" stroke="url(&quot;#theme-accent-gradient-linear&quot;) rgb(45, 45, 47)" stroke-width="45" stroke-linecap="round" stroke-linejoin="round"><path d="M 384.6844870425467,57.81299707321611 A 165.79068824155604,165.79068824155604 0 0,0 333.8104386033348,184.1954129691325" data-line="0" stroke-width="45.0" fill="none" stroke="url(&quot;#theme-accent-gradient-linear&quot;) rgb(45, 45, 47)"/><path d="M 90.5878633342382,595.117321938603 A 415.23266937592393,415.23266937592393 0 0,1 91.9550112806179,123.48295169068206" data-line="2" stroke-width="45.0" fill="none" stroke="url(&quot;#theme-accent-gradient-linear&quot;) rgb(45, 45, 47)"/><path d="M 928.1182188138747,121.35206700592877 A 407.36954667185114,407.36954667185114 0 0,1 930.7457884133762,597.1402823312394" data-line="3" stroke-width="45.0" fill="none" stroke="url(&quot;#theme-accent-gradient-linear&quot;) rgb(45, 45, 47)"/><path d="M 186.07830207064276,479.4587184165348 A 226.68755789964095,226.68755789964095 0 0,1 185.21051235540372,241.03722998529204" data-line="4" stroke-width="45.0" fill="none" stroke="url(&quot;#theme-accent-gradient-linear&quot;) rgb(45, 45, 47)"/><path d="M 836.4714490180414,480.56107031957526 A 221.895496070892,221.895496070892 0 0,0 837.7397490989348,243.32526210876952" data-line="5" stroke-width="45.0" fill="none" stroke="url(&quot;#theme-accent-gradient-linear&quot;) rgb(45, 45, 47)"/><path d="M 254.13414617102245,618.7943882444478 A 299.9001644579334,299.9001644579334 0 0,0 772.5373762443749,616.8720032208835" data-line="6" stroke-width="45.0" fill="none" stroke="url(&quot;#theme-accent-gradient-linear&quot;) rgb(45, 45, 47)"/><path d="M 512.0,766.439 L 511.903,1019.671" data-line="7" stroke-width="45.0" fill="none" stroke="url(&quot;#theme-accent-gradient-linear&quot;) rgb(45, 45, 47)"/><path d="M 295.484,1020.0 L 722.277,1019.65" data-line="8" stroke-width="45.0" fill="none" stroke="url(&quot;#theme-accent-gradient-linear&quot;) rgb(45, 45, 47)"/><path d="M 333.256,184.218 C 338.9630315736902,298.9119124045424 321.0660492896237,415.0907157652291 343.535,528.612" data-line="9" stroke-width="45.0" fill="none" stroke="url(&quot;#theme-accent-gradient-linear&quot;) rgb(45, 45, 47)"/><path d="M 344.5812932678608,528.2339194263425 A 178.91267411419514,178.91267411419514 0 0,0 691.3156507465885,454.85789085243385" data-line="10" stroke-width="45.0" fill="none" stroke="url(&quot;#theme-accent-gradient-linear&quot;) rgb(45, 45, 47)"/><path d="M 690.576,454.91 L 684.241,135.166" data-line="11" stroke-width="45.0" fill="none" stroke="url(&quot;#theme-accent-gradient-linear&quot;) rgb(45, 45, 47)"/><path d="M 684.7829233723138,135.02242979281 A 176.49246483641943,176.49246483641943 0 0,0 385.91427393575407,58.98344192753953" data-line="12" stroke-width="45.0" fill="none" stroke="url(&quot;#theme-accent-gradient-linear&quot;) rgb(45, 45, 47)"/></g></svg>