<svg xmlns="http://www.w3.org/2000/svg" width="1024" height="1024" viewBox="-45 -45 1113.3875732421875 1113.522705078125" class="colorable-icon reset-top-left-margin" data-export-recolorable-svg="true" overflow="visible" xmlns:xlink="http://www.w3.org/1999/xlink" fill="rgb(0, 0, 0)" stroke="none"><g fill="none" stroke="rgb(255, 255, 255)" stroke-width="45" stroke-linecap="round" stroke-linejoin="round"><path d="M 384.83,432.83 C 364.5,434.17 346.21,436.35 332.32,438.71 C 318.3,442.14 300.83,447.82 285.65,453.96 Q 269.57,461.67 251.1,471.8" data-line="nan" stroke-width="45.0" fill="none" stroke="rgb(255, 255, 255)"/><path d="M 892.26,992.31 C 869.69,1003.43 848.57,1011.44 825.33,1017.85 C 800.77,1022.16 781.26,1023.78 751.37,1023.49 C 726.77,1020.7 701.73,1015.29 678.89,1007.98 C 655.17,997.78 633.84,986.02 612.87,971.62 C 594.84,956.55 578.0,939.6 559.99,917.49 C 547.5,898.61 535.06,874.88 526.24,853.04 C 519.67,830.57 514.45,802.97 512.21,777.05 C 512.54,750.21 515.27,725.73 519.97,703.16 C 527.69,678.32 536.21,658.05 549.19,634.48 C 562.81,614.95 579.3,595.42 597.76,577.69 C 614.15,564.59 636.75,549.79 659.84,537.84 C 682.49,528.73 706.5,521.72 730.08,517.22 C 756.37,514.87 781.85,515.04 805.74,517.48 C 832.91,522.97 857.52,530.58 880.62,540.23 C 902.64,551.99 923.52,565.95 943.04,581.97 C 960.27,599.31 974.93,617.32 990.27,640.89 C 1002.53,665.3 1011.52,688.95 1018.18,713.6 C 1022.3,738.23 1023.95,762.13 1023.22,790.57 C 1019.96,815.83 1014.57,838.75 1006.77,862.11 C 996.84,884.25 984.26,906.21 970.62,925.41 C 953.75,944.98 937.15,960.86 915.1,978.07 L 892.26,992.31" data-line="nan" stroke-width="45.0" fill="none" stroke="rgb(255, 255, 255)"/><path d="M 515.5717066820246,471.7739990899852 A 239.33631173507,239.33631173507 0 0,0 384.83079272616567,433.22319274110953" data-line="0.0" stroke-width="45.0" fill="none" stroke="rgb(255, 255, 255)"/><path d="M 251.542712300502,472.47873330217647 A 244.42417373986007,244.42417373986007 0 0,0 477.7152734611834,903.391199313425" data-line="1.0" stroke-width="45.0" fill="none" stroke="rgb(255, 255, 255)"/><path d="M 568.57,518.79 L 515.73,471.53" data-line="2.0" stroke-width="45.0" fill="none" stroke="rgb(255, 255, 255)"/><path d="M 573.09,141.17 L 194.06,142.16" data-line="4.0" stroke-width="45.0" fill="none" stroke="rgb(255, 255, 255)"/><path d="M 398.3,395.23 L 669.88,0.97" data-line="5.0" stroke-width="45.0" fill="none" stroke="rgb(255, 255, 255)"/><path d="M 95.58,0.0 L 370.7,395.76" data-line="6.0" stroke-width="45.0" fill="none" stroke="rgb(255, 255, 255)"/><path d="M 684.24,15.14 L 765.5,112.3" data-line="7.0" stroke-width="45.0" fill="none" stroke="rgb(255, 255, 255)"/><path d="M 523.58,456.22 L 765.5,112.3" data-line="8.0" stroke-width="45.0" fill="none" stroke="rgb(255, 255, 255)"/><path d="M 251.1,471.8 L 0.0,112.34" data-line="10.0" stroke-width="45.0" fill="none" stroke="rgb(255, 255, 255)"/><path d="M 95.58,0.0 L 0.0,112.34" data-line="11.0" stroke-width="45.0" fill="none" stroke="rgb(255, 255, 255)"/><path d="M 669.88,0.97 L 95.58,0.0" data-line="12.0" stroke-width="45.0" fill="none" stroke="rgb(255, 255, 255)"/><path d="M 398.3,395.23 L 384.83,432.83" data-line="18.0" stroke-width="45.0" fill="none" stroke="rgb(255, 255, 255)"/><path d="M 370.7,395.76 L 384.83,432.83" data-line="19.0" stroke-width="45.0" fill="none" stroke="rgb(255, 255, 255)"/><path d="M 523.58,456.22 L 515.73,471.53" data-line="20.0" stroke-width="45.0" fill="none" stroke="rgb(255, 255, 255)"/><path d="M 684.24,15.14 L 669.88,0.97" data-line="24.0" stroke-width="45.0" fill="none" stroke="rgb(255, 255, 255)"/><path d="M 427.65,617.6 L 383.71,525.66" data-line="27.0" stroke-width="45.0" fill="none" stroke="rgb(255, 255, 255)"/><path d="M 480.5,626.17 L 427.65,617.6" data-line="28.0" stroke-width="45.0" fill="none" stroke="rgb(255, 255, 255)"/><path d="M 385.89,760.26 L 381.13,758.84" data-line="29.0" stroke-width="45.0" fill="none" stroke="rgb(255, 255, 255)"/><path d="M 385.89,760.26 L 449.16,794.22" data-line="30.0" stroke-width="45.0" fill="none" stroke="rgb(255, 255, 255)"/><path d="M 381.13,758.84 L 288.45,808.82" data-line="31.0" stroke-width="45.0" fill="none" stroke="rgb(255, 255, 255)"/><path d="M 311.48,705.17 L 288.45,808.82" data-line="32.0" stroke-width="45.0" fill="none" stroke="rgb(255, 255, 255)"/><path d="M 311.48,705.17 L 236.01,633.13" data-line="33.0" stroke-width="45.0" fill="none" stroke="rgb(255, 255, 255)"/><path d="M 338.96,619.17 L 236.01,633.13" data-line="34.0" stroke-width="45.0" fill="none" stroke="rgb(255, 255, 255)"/><path d="M 383.71,525.66 L 338.96,619.17" data-line="35.0" stroke-width="45.0" fill="none" stroke="rgb(255, 255, 255)"/><path d="M 921.2,664.12 L 723.54,861.88" data-line="51.0" stroke-width="45.0" fill="none" stroke="rgb(255, 255, 255)"/><path d="M 622.98,762.14 L 723.54,861.88" data-line="52.0" stroke-width="45.0" fill="none" stroke="rgb(255, 255, 255)"/></g></svg>