<svg xmlns="http://www.w3.org/2000/svg" width="1024" height="1024" viewBox="64.3655776977539 -40.835999965667725 896.2053833007812 1105.833984375" class="colorable-icon reset-top-left-margin" data-export-recolorable-svg="true" overflow="visible" xmlns:xlink="http://www.w3.org/1999/xlink" fill="rgb(0, 0, 0)" stroke="none"><g fill="none" stroke="rgb(255, 255, 255)" stroke-width="45" stroke-linecap="round" stroke-linejoin="round"><path d="M 557.117,744.361 C 573.093,765.089 580.88,777.088 588.786,792.898 C 594.554,808.839 598.576,825.259 601.053,844.769 C 601.239,862.943 599.565,879.114 594.758,900.057 C 586.22,922.321 575.467,943.119 548.476,989.383 C 542.313,997.93 534.068,1005.824 526.391,1010.987 C 515.207,1015.49 507.346,1017.025 497.045,1016.901 C 486.241,1014.278 478.639,1010.893 471.097,1005.947 C 463.665,998.495 458.029,989.885 454.532,980.897 C 452.833,968.082 454.792,956.671 459.733,944.434 C 479.307,907.221 483.202,896.472 485.584,884.624 C 483.944,874.699 479.586,863.692 462.324,839.019" data-line="nan" stroke-width="45.0" fill="none" stroke="rgb(255, 255, 255)"/><path d="M 345.1,838.963 C 327.43,865.969 323.65,875.993 322.565,884.12 C 324.815,896.372 329.562,909.493 336.014,923.2 C 348.323,946.076 352.734,957.518 354.182,965.297 C 354.279,971.433 351.697,983.997 347.593,992.709 C 341.382,1000.871 334.891,1006.791 326.199,1012.251 C 317.404,1015.61 309.567,1017.2 299.63,1017.054 C 291.058,1015.294 279.525,1010.177 271.074,1003.908 C 262.797,994.703 256.992,985.967 231.381,941.763 C 222.328,923.856 214.001,902.357 208.463,878.69 C 206.829,860.241 207.225,844.0 209.888,823.718 C 214.301,806.057 220.323,789.912 227.741,775.363 Q 235.494,763.59 251.075,743.691" data-line="nan" stroke-width="45.0" fill="none" stroke="rgb(255, 255, 255)"/><path d="M 471.352,434.337 C 434.854,442.661 418.443,444.639 402.63,445.384 C 386.5,444.833 370.241,442.982 334.134,435.224" data-line="nan" stroke-width="45.0" fill="none" stroke="rgb(255, 255, 255)"/><path d="M 566.054,605.008 C 600.581,654.6 610.353,667.297 618.096,674.778 C 630.551,682.026 638.779,684.576 646.854,685.642 C 658.959,684.474 667.212,681.82 675.836,677.237 C 683.842,670.743 690.087,662.964 694.414,654.412 C 697.454,641.842 697.179,629.579 695.196,621.481 C 689.173,609.029 678.123,592.914 637.96,540.021 C 624.88,523.73 610.153,507.561 598.039,496.345 C 581.66,483.404 565.441,472.536 549.07,463.267 Q 520.738,450.773 471.352,434.337" data-line="nan" stroke-width="45.0" fill="none" stroke="rgb(255, 255, 255)"/><path d="M 334.134,435.224 C 289.502,448.792 273.414,455.06 257.133,462.758 C 240.861,471.915 224.696,482.706 208.482,495.537 C 196.217,506.913 184.556,519.397 167.777,540.002 C 127.798,592.479 116.707,608.585 110.875,620.649 C 108.992,628.304 108.663,640.895 111.087,652.104 C 114.791,660.432 120.368,668.406 127.762,675.298 C 136.074,680.419 144.215,683.64 156.3,685.679 C 168.451,684.526 176.895,681.91 185.289,677.479 Q 196.804,666.975 241.897,604.23" data-line="nan" stroke-width="45.0" fill="none" stroke="rgb(255, 255, 255)"/><path d="M 471.352,434.337 C 509.163,407.756 525.009,393.958 542.799,373.827 C 551.235,361.755 558.364,349.558 564.466,337.068 C 569.253,325.036 573.12,312.769 576.814,296.334 C 578.842,279.995 579.313,267.781 578.857,255.596 C 576.84,239.293 573.268,223.12 569.424,210.782 C 562.914,194.56 556.733,182.274 549.438,170.094 C 540.917,158.057 530.533,145.752 519.292,134.682 C 507.443,125.054 494.916,116.597 482.629,109.687 C 470.394,103.989 446.156,95.705 413.226,89.394 C 392.441,89.716 380.318,90.855 367.56,93.07 C 351.895,97.058 335.833,102.703 321.86,109.085 C 307.944,117.025 295.738,125.486 283.327,136.033 C 273.72,145.891 262.078,160.117 252.534,174.076 C 244.365,188.575 238.857,200.742 233.494,215.873 C 229.872,229.825 227.288,244.523 226.074,258.582 C 225.948,274.84 227.228,291.052 229.65,305.242 C 233.867,321.232 239.196,335.677 245.435,349.112 C 259.567,372.026 269.312,384.262 278.387,393.916 Q 298.44,411.02 334.134,435.224" data-line="nan" stroke-width="45.0" fill="none" stroke="rgb(255, 255, 255)"/><path d="M 358.245,4.164 C 371.717,4.435 384.204,7.767 396.988,15.349 C 401.052,18.959 407.935,27.113 414.431,39.783 C 417.307,52.27 417.343,63.522 413.226,89.394" data-line="nan" stroke-width="45.0" fill="none" stroke="rgb(255, 255, 255)"/><path d="M 557.117,744.361 L 462.324,839.019" data-line="1.0" stroke-width="45.0" fill="none" stroke="rgb(255, 255, 255)"/><path d="M 345.1,838.963 L 251.075,743.691" data-line="2.0" stroke-width="45.0" fill="none" stroke="rgb(255, 255, 255)"/><path d="M 556.065,680.412 L 251.288,680.397" data-line="4.0" stroke-width="45.0" fill="none" stroke="rgb(255, 255, 255)"/><path d="M 557.117,744.361 L 555.568,602.285" data-line="5.0" stroke-width="45.0" fill="none" stroke="rgb(255, 255, 255)"/><path d="M 461.63604643914147,838.3591903859489 A 80.20027905816038,80.20027905816038 0 0,1 345.8048933085899,838.2885913734629" data-line="6.0" stroke-width="45.0" fill="none" stroke="rgb(255, 255, 255)"/><path d="M 251.715,604.634 L 251.075,743.691" data-line="7.0" stroke-width="45.0" fill="none" stroke="rgb(255, 255, 255)"/><path d="M 770.387,13.038 L 915.313,12.975" data-line="27.0" stroke-width="45.0" fill="none" stroke="rgb(255, 255, 255)"/><path d="M 770.387,13.038 L 769.642,507.869" data-line="28.0" stroke-width="45.0" fill="none" stroke="rgb(255, 255, 255)"/><path d="M 769.642,507.869 L 770.248,1019.769" data-line="32.0" stroke-width="45.0" fill="none" stroke="rgb(255, 255, 255)"/><path d="M 770.248,1019.769 L 913.958,1019.998" data-line="33.0" stroke-width="45.0" fill="none" stroke="rgb(255, 255, 255)"/><path d="M 856.809,894.343 L 769.643,894.297" data-line="34.0" stroke-width="45.0" fill="none" stroke="rgb(255, 255, 255)"/><path d="M 769.64,795.601 L 824.522,795.405" data-line="35.0" stroke-width="45.0" fill="none" stroke="rgb(255, 255, 255)"/><path d="M 824.287,693.897 L 769.644,694.033" data-line="36.0" stroke-width="45.0" fill="none" stroke="rgb(255, 255, 255)"/><path d="M 769.647,592.751 L 915.571,592.601" data-line="37.0" stroke-width="45.0" fill="none" stroke="rgb(255, 255, 255)"/><path d="M 769.645,497.467 L 857.044,497.475" data-line="38.0" stroke-width="45.0" fill="none" stroke="rgb(255, 255, 255)"/><path d="M 769.644,400.422 L 823.167,400.405" data-line="39.0" stroke-width="45.0" fill="none" stroke="rgb(255, 255, 255)"/><path d="M 889.331,300.694 L 769.644,300.634" data-line="40.0" stroke-width="45.0" fill="none" stroke="rgb(255, 255, 255)"/><path d="M 769.644,204.104 L 824.522,204.062" data-line="41.0" stroke-width="45.0" fill="none" stroke="rgb(255, 255, 255)"/><path d="M 769.649,106.314 L 857.044,106.361" data-line="42.0" stroke-width="45.0" fill="none" stroke="rgb(255, 255, 255)"/></g></svg>