<svg xmlns="http://www.w3.org/2000/svg" width="1024" height="1024" viewBox="137.1300048828125 -41 749.68505859375 1105.7032470703125" class="colorable-icon reset-top-left-margin" data-export-recolorable-svg="true" overflow="visible" xmlns:xlink="http://www.w3.org/1999/xlink" fill="rgb(0, 0, 0)" stroke="none"><g fill="none" stroke="rgb(255, 255, 255)" stroke-width="45" stroke-linecap="round" stroke-linejoin="round"><path d="M 182.259,936.38 C 182.747,953.552 184.421,963.416 188.499,974.937 C 193.363,983.865 199.959,992.657 207.533,1000.128 C 215.929,1006.238 229.23,1012.874 242.301,1016.978 C 255.26,1019.342 263.953,1019.983 276.964,1019.6 Q 290.356,1017.722 351.95,1004.876" data-line="nan" stroke-width="45.0" fill="none" stroke="rgb(255, 255, 255)"/><path d="M 773.311,911.284 C 795.658,905.072 808.747,898.907 820.54,889.872 C 826.514,883.34 831.23,876.709 836.912,864.973 C 840.813,847.332 841.858,834.751 841.802,796.683" data-line="nan" stroke-width="45.0" fill="none" stroke="rgb(255, 255, 255)"/><path d="M 841.815,178.969 C 840.574,161.712 836.143,148.2 828.925,137.14 C 822.852,131.147 816.217,126.523 804.991,121.967 C 798.372,120.629 791.816,120.43 779.647,121.609 L 748.237,128.249" data-line="nan" stroke-width="45.0" fill="none" stroke="rgb(255, 255, 255)"/><path d="M 230.999,107.38 C 218.044,110.978 209.421,115.111 200.955,121.168 C 196.988,124.983 190.411,133.556 186.213,142.257 Q 183.663,154.78 184.812,188.778" data-line="nan" stroke-width="45.0" fill="none" stroke="rgb(255, 255, 255)"/><path d="M 182.13,187.158 L 182.259,936.38" data-line="0.0" stroke-width="45.0" fill="none" stroke="rgb(255, 255, 255)"/><path d="M 313.894,220.386 L 313.871,1012.527" data-line="1.0" stroke-width="45.0" fill="none" stroke="rgb(255, 255, 255)"/><path d="M 715.267,4.0 L 230.999,107.38" data-line="2.0" stroke-width="45.0" fill="none" stroke="rgb(255, 255, 255)"/><path d="M 715.267,4.0 L 715.216,135.241" data-line="3.0" stroke-width="45.0" fill="none" stroke="rgb(255, 255, 255)"/><path d="M 351.95,1004.876 L 773.311,911.284" data-line="5.0" stroke-width="45.0" fill="none" stroke="rgb(255, 255, 255)"/><path d="M 841.802,796.683 L 841.815,178.969" data-line="7.0" stroke-width="45.0" fill="none" stroke="rgb(255, 255, 255)"/><path d="M 748.237,128.249 L 328.479,217.722" data-line="9.0" stroke-width="45.0" fill="none" stroke="rgb(255, 255, 255)"/><path d="M 328.2883595999508,217.09513883400223 A 154.8646790100776,154.8646790100776 0 0,1 184.94746570400275,188.61303620993561" data-line="10.0" stroke-width="45.0" fill="none" stroke="rgb(255, 255, 255)"/></g></svg>