<svg xmlns="http://www.w3.org/2000/svg" width="1024" height="1024" viewBox="-44.97999999858439 -44.54999998211861 1113.97998046875 1113.5499877929688" class="colorable-icon reset-top-left-margin" data-export-recolorable-svg="true" overflow="visible" xmlns:xlink="http://www.w3.org/1999/xlink" fill="rgb(0, 0, 0)" stroke="none"><g fill="none" stroke="rgb(255, 255, 255)" stroke-width="45" stroke-linecap="round" stroke-linejoin="round"><path d="M 487.42,600.8 C 499.28,599.62 511.91,594.86 515.94,592.27 C 523.17,585.51 528.64,577.33 531.75,568.98 Q 533.53,556.92 533.67,502.21" data-line="nan" stroke-width="45.0" fill="none" stroke="rgb(255, 255, 255)"/><path d="M 533.59,123.25 C 532.15,111.44 527.51,99.11 525.03,95.15 C 518.7,88.14 515.03,85.16 506.95,80.63 C 498.95,78.16 491.31,77.23 436.65,76.7" data-line="nan" stroke-width="45.0" fill="none" stroke="rgb(255, 255, 255)"/><path d="M 43.1,76.88 C 32.48,78.57 23.67,81.68 17.45,85.57 C 9.36,93.4 4.88,100.57 1.68,109.2 Q 0.26,117.13 0.02,130.8" data-line="nan" stroke-width="45.0" fill="none" stroke="rgb(255, 255, 255)"/><path d="M 0.33,557.83 C 1.88,568.86 5.42,578.13 10.82,585.59 C 17.37,591.65 24.71,596.31 32.5,599.37 Q 40.46,600.56 56.12,600.79" data-line="nan" stroke-width="45.0" fill="none" stroke="rgb(255, 255, 255)"/><path d="M 1024.0,767.2 C 970.13,748.48 949.65,739.57 929.23,729.04 C 912.08,718.65 891.86,704.23 874.57,689.85 C 859.14,675.07 843.54,657.97 830.07,640.76 C 818.3,623.38 806.72,603.44 797.57,584.97 Q 789.91,566.82 771.59,512.0" data-line="nan" stroke-width="45.0" fill="none" stroke="rgb(255, 255, 255)"/><path d="M 1024.0,767.2 C 971.69,785.18 951.87,793.76 933.84,803.0 C 914.39,814.78 895.1,828.49 877.9,842.76 C 862.21,857.71 846.72,874.53 833.1,891.61 C 819.92,910.69 808.38,930.13 797.92,950.94 Q 789.51,970.82 771.43,1024.0" data-line="nan" stroke-width="45.0" fill="none" stroke="rgb(255, 255, 255)"/><path d="M 771.43,1024.0 C 754.57,972.28 746.03,951.58 736.48,932.05 C 724.92,911.94 712.9,893.95 698.5,875.38 C 683.98,859.22 667.59,843.46 651.86,830.38 C 634.71,818.01 615.24,806.0 594.75,795.28 Q 575.66,786.8 523.47,768.18" data-line="nan" stroke-width="45.0" fill="none" stroke="rgb(255, 255, 255)"/><path d="M 771.59,512.0 C 752.79,568.13 744.84,587.23 735.63,606.15 C 724.95,624.9 712.22,643.93 697.4,662.89 C 683.26,678.4 667.87,693.07 649.12,708.49 C 633.37,719.72 614.13,731.56 595.24,741.45 Q 576.4,749.8 523.47,768.18" data-line="nan" stroke-width="45.0" fill="none" stroke="rgb(255, 255, 255)"/><path d="M 461.44,752.17 L 399.32,600.89" data-line="1.0" stroke-width="45.0" fill="none" stroke="rgb(255, 255, 255)"/><path d="M 447.31,717.73 L 86.29,717.85" data-line="2.0" stroke-width="45.0" fill="none" stroke="rgb(255, 255, 255)"/><path d="M 268.1,600.95 L 267.94,741.88" data-line="3.0" stroke-width="45.0" fill="none" stroke="rgb(255, 255, 255)"/><path d="M 134.02,600.94 L 4.22,921.6" data-line="5.0" stroke-width="45.0" fill="none" stroke="rgb(255, 255, 255)"/><path d="M 294.49,1.03 L 238.51,0.45" data-line="6.0" stroke-width="45.0" fill="none" stroke="rgb(255, 255, 255)"/><path d="M 295.97,76.67 L 294.49,1.03" data-line="7.0" stroke-width="45.0" fill="none" stroke="rgb(255, 255, 255)"/><path d="M 238.51,0.45 L 237.68,76.69" data-line="8.0" stroke-width="45.0" fill="none" stroke="rgb(255, 255, 255)"/><path d="M 278.02,600.94 L 487.42,600.8" data-line="9.0" stroke-width="45.0" fill="none" stroke="rgb(255, 255, 255)"/><path d="M 267.94,741.88 L 268.07,892.84" data-line="10.0" stroke-width="45.0" fill="none" stroke="rgb(255, 255, 255)"/><path d="M 533.67,502.21 L 533.59,123.25" data-line="11.0" stroke-width="45.0" fill="none" stroke="rgb(255, 255, 255)"/><path d="M 490.13,822.77 L 523.33,904.36" data-line="11.0" stroke-width="45.0" fill="none" stroke="rgb(255, 255, 255)"/><path d="M 436.65,76.7 L 43.1,76.88" data-line="13.0" stroke-width="45.0" fill="none" stroke="rgb(255, 255, 255)"/><path d="M 0.02,130.8 L 0.33,557.83" data-line="15.0" stroke-width="45.0" fill="none" stroke="rgb(255, 255, 255)"/><path d="M 56.12,600.79 L 278.02,600.94" data-line="17.0" stroke-width="45.0" fill="none" stroke="rgb(255, 255, 255)"/></g></svg>