<svg xmlns="http://www.w3.org/2000/svg" width="1024" height="1024" viewBox="-23.31999969482422 51.801170349121094 1088.7236328125 920.9698486328125" class="colorable-icon reset-top-left-margin" data-export-recolorable-svg="true" overflow="visible" xmlns:xlink="http://www.w3.org/1999/xlink" fill="rgb(0, 0, 0)" stroke="none"><g fill="none" stroke="url(&quot;#theme-accent-gradient-linear&quot;) rgb(45, 45, 47)" stroke-width="45" stroke-linecap="round" stroke-linejoin="round"><path d="M 664.471,540.666 C 677.29,552.495 687.11,563.297 694.097,573.102 C 701.801,587.679 706.502,601.8 708.981,616.014 C 709.275,630.33 707.475,644.74 703.383,659.187 C 696.664,673.62 686.476,688.366 677.784,697.633 C 668.106,705.692 653.522,714.566 638.99,720.247 C 624.726,723.467 605.705,724.489 591.491,722.736 C 577.227,718.908 562.975,712.576 548.708,703.226 C 539.417,695.0 531.264,685.747 521.903,671.214 C 515.685,656.752 512.059,642.716 510.419,628.686 C 511.004,614.628 513.63,600.533 516.622,591.149 Q 521.353,580.483 532.756,558.84" data-line="nan" stroke-width="45.0" fill="none" stroke="url(&quot;#theme-accent-gradient-linear&quot;) rgb(45, 45, 47)"/><path d="M 664.2343852831915,541.0650783762248 A 104.76757979864816,104.76757979864816 0 0,0 533.9667932398396,559.9623117998046" data-line="0.0" stroke-width="45.0" fill="none" stroke="url(&quot;#theme-accent-gradient-linear&quot;) rgb(45, 45, 47)"/><path d="M 434.59162002221854,488.446880191741 A 114.8186812544036,114.8186812544036 0 1,0 262.8299731825658,510.63329458713866" data-line="2.0" stroke-width="45.0" fill="none" stroke="url(&quot;#theme-accent-gradient-linear&quot;) rgb(45, 45, 47)"/><path d="M 434.9006788914847,488.62257703270774 A 117.16655681568469,117.16655681568469 0 0,1 262.8016840043344,510.6308352679268" data-line="3.0" stroke-width="45.0" fill="none" stroke="url(&quot;#theme-accent-gradient-linear&quot;) rgb(45, 45, 47)"/><circle cx="896.1831968609978" cy="221.02163351417718" r="124.22046375770115" data-line="4.0" stroke-width="45.0" fill="none" stroke="url(&quot;#theme-accent-gradient-linear&quot;) rgb(45, 45, 47)"/><path d="M 817.264,319.294 L 664.471,540.666" data-line="5.0" stroke-width="45.0" fill="none" stroke="url(&quot;#theme-accent-gradient-linear&quot;) rgb(45, 45, 47)"/><path d="M 532.756,558.84 L 435.84,489.279" data-line="6.0" stroke-width="45.0" fill="none" stroke="url(&quot;#theme-accent-gradient-linear&quot;) rgb(45, 45, 47)"/><path d="M 27.419,789.213 L 262.042,511.521" data-line="7.0" stroke-width="45.0" fill="none" stroke="url(&quot;#theme-accent-gradient-linear&quot;) rgb(45, 45, 47)"/><path d="M 807.555,308.273 L 817.599,318.821" data-line="8.0" stroke-width="45.0" fill="none" stroke="url(&quot;#theme-accent-gradient-linear&quot;) rgb(45, 45, 47)"/><path d="M 21.68,927.589 L 1015.104,927.771" data-line="16.0" stroke-width="45.0" fill="none" stroke="url(&quot;#theme-accent-gradient-linear&quot;) rgb(45, 45, 47)"/></g></svg>