<svg xmlns="http://www.w3.org/2000/svg" width="1024" height="1024" viewBox="100.66900634765625 -40.28855848312378 822.3598022460938 1105.2845458984375" class="colorable-icon reset-top-left-margin" data-export-recolorable-svg="true" overflow="visible" xmlns:xlink="http://www.w3.org/1999/xlink" fill="rgb(0, 0, 0)" stroke="none"><g fill="none" stroke="url(&quot;#theme-accent-gradient-linear&quot;) rgb(45, 45, 47)" stroke-width="45" stroke-linecap="round" stroke-linejoin="round"><path d="M 708.46,308.825 C 649.296,325.564 605.681,335.05 570.139,340.021 C 518.777,342.903 471.366,341.382 427.952,336.517 Q 384.457,327.942 315.741,310.404" data-line="nan" stroke-width="45.0" fill="none" stroke="url(&quot;#theme-accent-gradient-linear&quot;) rgb(45, 45, 47)"/><path d="M 840.164,136.673 Q 794.813,115.42 715.733,83.461" data-line="nan" stroke-width="45.0" fill="none" stroke="url(&quot;#theme-accent-gradient-linear&quot;) rgb(45, 45, 47)"/><path d="M 521.526,6.011 C 512.156,4.0 506.612,4.505 500.532,6.284 L 409.971,42.293" data-line="nan" stroke-width="45.0" fill="none" stroke="url(&quot;#theme-accent-gradient-linear&quot;) rgb(45, 45, 47)"/><path d="M 230.882,114.277 L 189.189,131.405" data-line="nan" stroke-width="45.0" fill="none" stroke="url(&quot;#theme-accent-gradient-linear&quot;) rgb(45, 45, 47)"/><path d="M 638.746,650.689 C 651.295,651.992 677.5,658.371 716.845,669.564 C 746.461,679.682 767.5,688.673 785.713,698.018 C 801.799,708.046 815.861,718.865 826.238,729.029 C 835.54,740.704 845.224,757.195 850.688,769.86 C 853.742,780.288 856.161,792.394 863.445,847.821" data-line="nan" stroke-width="45.0" fill="none" stroke="url(&quot;#theme-accent-gradient-linear&quot;) rgb(45, 45, 47)"/><path d="M 877.963,962.261 C 878.365,974.295 876.938,983.231 873.289,992.274 C 866.39,1002.364 857.989,1010.091 849.866,1014.774 Q 841.291,1018.106 831.762,1019.776" data-line="nan" stroke-width="45.0" fill="none" stroke="url(&quot;#theme-accent-gradient-linear&quot;) rgb(45, 45, 47)"/><path d="M 201.983,1019.996 C 186.222,1018.821 172.451,1014.214 161.483,1006.287 C 152.751,996.071 147.873,985.683 145.669,974.258 Q 145.917,964.332 148.857,939.149" data-line="nan" stroke-width="45.0" fill="none" stroke="url(&quot;#theme-accent-gradient-linear&quot;) rgb(45, 45, 47)"/><path d="M 167.635,790.898 C 170.385,777.827 174.31,765.947 179.808,754.063 C 185.858,744.115 194.957,732.386 204.293,722.763 C 215.017,713.821 227.727,704.78 241.603,696.404 C 256.707,688.558 270.489,682.293 288.574,675.379 C 310.11,668.422 340.273,659.958 384.905,649.377" data-line="nan" stroke-width="45.0" fill="none" stroke="url(&quot;#theme-accent-gradient-linear&quot;) rgb(45, 45, 47)"/><path d="M 704.103,186.184 L 712.408,337.673" data-line="1.0" stroke-width="45.0" fill="none" stroke="url(&quot;#theme-accent-gradient-linear&quot;) rgb(45, 45, 47)"/><path d="M 189.189,131.405 L 341.129,195.274" data-line="2.0" stroke-width="45.0" fill="none" stroke="url(&quot;#theme-accent-gradient-linear&quot;) rgb(45, 45, 47)"/><path d="M 341.129,195.274 L 510.608,262.606" data-line="3.0" stroke-width="45.0" fill="none" stroke="url(&quot;#theme-accent-gradient-linear&quot;) rgb(45, 45, 47)"/><path d="M 809.015,145.121 L 510.608,262.606" data-line="4.0" stroke-width="45.0" fill="none" stroke="url(&quot;#theme-accent-gradient-linear&quot;) rgb(45, 45, 47)"/><path d="M 314.158,310.01 L 314.121,184.046" data-line="5.0" stroke-width="45.0" fill="none" stroke="url(&quot;#theme-accent-gradient-linear&quot;) rgb(45, 45, 47)"/><path d="M 809.003,356.168 L 809.015,145.121" data-line="7.0" stroke-width="45.0" fill="none" stroke="url(&quot;#theme-accent-gradient-linear&quot;) rgb(45, 45, 47)"/><path d="M 715.733,83.461 L 521.526,6.011" data-line="12.0" stroke-width="45.0" fill="none" stroke="url(&quot;#theme-accent-gradient-linear&quot;) rgb(45, 45, 47)"/><path d="M 409.971,42.293 L 230.882,114.277" data-line="14.0" stroke-width="45.0" fill="none" stroke="url(&quot;#theme-accent-gradient-linear&quot;) rgb(45, 45, 47)"/><path d="M 863.445,847.821 L 877.963,962.261" data-line="17.0" stroke-width="45.0" fill="none" stroke="url(&quot;#theme-accent-gradient-linear&quot;) rgb(45, 45, 47)"/><path d="M 511.753,776.615 L 384.905,649.377" data-line="18.0" stroke-width="45.0" fill="none" stroke="url(&quot;#theme-accent-gradient-linear&quot;) rgb(45, 45, 47)"/><path d="M 638.746,650.689 L 511.753,776.615" data-line="19.0" stroke-width="45.0" fill="none" stroke="url(&quot;#theme-accent-gradient-linear&quot;) rgb(45, 45, 47)"/><path d="M 831.762,1019.776 L 201.983,1019.996" data-line="19.0" stroke-width="45.0" fill="none" stroke="url(&quot;#theme-accent-gradient-linear&quot;) rgb(45, 45, 47)"/><path d="M 712.4158288906805,337.6710374135787 A 207.36428428040284,207.36428428040284 0 1,1 315.3624280614444,320.1376612815685" data-line="20.0" stroke-width="45.0" fill="none" stroke="url(&quot;#theme-accent-gradient-linear&quot;) rgb(45, 45, 47)"/><path d="M 148.857,939.149 L 167.635,790.898" data-line="23.0" stroke-width="45.0" fill="none" stroke="url(&quot;#theme-accent-gradient-linear&quot;) rgb(45, 45, 47)"/></g></svg>